<?xml version="1.0" encoding="UTF-8" standalone="no"?>
<!DOCTYPE svg PUBLIC "-//W3C//DTD SVG 1.1//EN"
 "http://www.w3.org/Graphics/SVG/1.1/DTD/svg11.dtd">
<!-- Generated by graphviz version 2.38.0 (20140413.2041)
 -->
<!-- Title: controllers_diagram Pages: 1 -->
<svg width="817pt" height="715pt"
 viewBox="0.00 0.00 817.00 715.00" xmlns="http://www.w3.org/2000/svg" xmlns:xlink="http://www.w3.org/1999/xlink">
<g id="graph0" class="graph" transform="scale(1 1) rotate(0) translate(327 388.5)">
<title>controllers_diagram</title>
<polygon fill="none" stroke="none" points="-327,326.5 -327,-388.5 490,-388.5 490,326.5 -327,326.5"/>
<!-- _diagram_info -->
<g id="node1" class="node"><title>_diagram_info</title>
<text text-anchor="start" x="280" y="208.4" font-family="Times,serif" font-size="13.00">Controllers diagram</text>
<text text-anchor="start" x="280" y="222.4" font-family="Times,serif" font-size="13.00">Date: Aug 11 2016 &#45; 21:55</text>
<text text-anchor="start" x="280" y="236.4" font-family="Times,serif" font-size="13.00">Migration version: 20160811013925</text>
<text text-anchor="start" x="280" y="250.4" font-family="Times,serif" font-size="13.00">Generated by RailRoady 1.5.1</text>
<text text-anchor="start" x="280" y="264.4" font-family="Times,serif" font-size="13.00">http://railroady.prestonlee.com</text>
</g>
<!-- ApplicationController -->
<g id="node2" class="node"><title>ApplicationController</title>
<path fill="none" stroke="black" d="M-311,-154C-311,-154 -199,-154 -199,-154 -193,-154 -187,-160 -187,-166 -187,-166 -187,-236 -187,-236 -187,-242 -193,-248 -199,-248 -199,-248 -311,-248 -311,-248 -317,-248 -323,-242 -323,-236 -323,-236 -323,-166 -323,-166 -323,-160 -317,-154 -311,-154"/>
<text text-anchor="middle" x="-255" y="-232.8" font-family="Times,serif" font-size="14.00">ApplicationController</text>
<polyline fill="none" stroke="black" points="-323,-225 -187,-225 "/>
<polyline fill="none" stroke="black" points="-323,-201 -187,-201 "/>
<polyline fill="none" stroke="black" points="-323,-177 -187,-177 "/>
<text text-anchor="start" x="-315" y="-161.8" font-family="Times,serif" font-size="14.00">_layout</text>
</g>
<!-- HomeController -->
<g id="node3" class="node"><title>HomeController</title>
<path fill="none" stroke="black" d="M-124,322C-124,322 -42,322 -42,322 -36,322 -30,316 -30,310 -30,310 -30,226 -30,226 -30,220 -36,214 -42,214 -42,214 -124,214 -124,214 -130,214 -136,220 -136,226 -136,226 -136,310 -136,310 -136,316 -130,322 -124,322"/>
<text text-anchor="middle" x="-83" y="229.2" font-family="Times,serif" font-size="14.00">HomeController</text>
<polyline fill="none" stroke="black" points="-136,237 -30,237 "/>
<text text-anchor="start" x="-128" y="252.2" font-family="Times,serif" font-size="14.00">user</text>
<text text-anchor="start" x="-128" y="267.2" font-family="Times,serif" font-size="14.00">usercompanies</text>
<polyline fill="none" stroke="black" points="-136,275 -30,275 "/>
<polyline fill="none" stroke="black" points="-136,299 -30,299 "/>
<text text-anchor="start" x="-128" y="314.2" font-family="Times,serif" font-size="14.00">_layout</text>
</g>
<!-- Usercompanies::ConfirmationsController -->
<g id="node4" class="node"><title>Usercompanies::ConfirmationsController</title>
<path fill="none" stroke="black" d="M97,-86C97,-86 315,-86 315,-86 321,-86 327,-92 327,-98 327,-98 327,-168 327,-168 327,-174 321,-180 315,-180 315,-180 97,-180 97,-180 91,-180 85,-174 85,-168 85,-168 85,-98 85,-98 85,-92 91,-86 97,-86"/>
<text text-anchor="middle" x="206" y="-164.8" font-family="Times,serif" font-size="14.00">Usercompanies::ConfirmationsController</text>
<polyline fill="none" stroke="black" points="85,-157 327,-157 "/>
<polyline fill="none" stroke="black" points="85,-133 327,-133 "/>
<polyline fill="none" stroke="black" points="85,-109 327,-109 "/>
<text text-anchor="start" x="93" y="-93.8" font-family="Times,serif" font-size="14.00">_layout</text>
</g>
<!-- Usercompanies::OmniauthCallbacksController -->
<g id="node5" class="node"><title>Usercompanies::OmniauthCallbacksController</title>
<path fill="none" stroke="black" d="M-124,50C-124,50 124,50 124,50 130,50 136,44 136,38 136,38 136,-32 136,-32 136,-38 130,-44 124,-44 124,-44 -124,-44 -124,-44 -130,-44 -136,-38 -136,-32 -136,-32 -136,38 -136,38 -136,44 -130,50 -124,50"/>
<text text-anchor="middle" x="0" y="-28.8" font-family="Times,serif" font-size="14.00">Usercompanies::OmniauthCallbacksController</text>
<polyline fill="none" stroke="black" points="-136,-21 136,-21 "/>
<polyline fill="none" stroke="black" points="-136,3 136,3 "/>
<polyline fill="none" stroke="black" points="-136,27 136,27 "/>
<text text-anchor="start" x="-128" y="42.2" font-family="Times,serif" font-size="14.00">_layout</text>
</g>
<!-- Usercompanies::PasswordsController -->
<g id="node6" class="node"><title>Usercompanies::PasswordsController</title>
<path fill="none" stroke="black" d="M181.5,50.5C181.5,50.5 378.5,50.5 378.5,50.5 384.5,50.5 390.5,44.5 390.5,38.5 390.5,38.5 390.5,-30.5 390.5,-30.5 390.5,-36.5 384.5,-42.5 378.5,-42.5 378.5,-42.5 181.5,-42.5 181.5,-42.5 175.5,-42.5 169.5,-36.5 169.5,-30.5 169.5,-30.5 169.5,38.5 169.5,38.5 169.5,44.5 175.5,50.5 181.5,50.5"/>
<text text-anchor="middle" x="280" y="-27.3" font-family="Times,serif" font-size="14.00">Usercompanies::PasswordsController</text>
<polyline fill="none" stroke="black" points="169.5,-19.5 390.5,-19.5 "/>
<text text-anchor="start" x="177.5" y="-4.3" font-family="Times,serif" font-size="14.00">after_resetting_password_path_for</text>
<polyline fill="none" stroke="black" points="169.5,3.5 390.5,3.5 "/>
<polyline fill="none" stroke="black" points="169.5,27.5 390.5,27.5 "/>
<text text-anchor="start" x="177.5" y="42.7" font-family="Times,serif" font-size="14.00">_layout</text>
</g>
<!-- Usercompanies::RegistrationsController -->
<g id="node7" class="node"><title>Usercompanies::RegistrationsController</title>
<path fill="none" stroke="black" d="M12.5,169.5C12.5,169.5 223.5,169.5 223.5,169.5 229.5,169.5 235.5,163.5 235.5,157.5 235.5,157.5 235.5,88.5 235.5,88.5 235.5,82.5 229.5,76.5 223.5,76.5 223.5,76.5 12.5,76.5 12.5,76.5 6.5,76.5 0.5,82.5 0.5,88.5 0.5,88.5 0.5,157.5 0.5,157.5 0.5,163.5 6.5,169.5 12.5,169.5"/>
<text text-anchor="middle" x="118" y="91.7" font-family="Times,serif" font-size="14.00">Usercompanies::RegistrationsController</text>
<polyline fill="none" stroke="black" points="0.5,99.5 235.5,99.5 "/>
<text text-anchor="start" x="8.5" y="114.7" font-family="Times,serif" font-size="14.00">after_sign_up_path_for</text>
<polyline fill="none" stroke="black" points="0.5,122.5 235.5,122.5 "/>
<polyline fill="none" stroke="black" points="0.5,146.5 235.5,146.5 "/>
<text text-anchor="start" x="8.5" y="161.7" font-family="Times,serif" font-size="14.00">_layout</text>
</g>
<!-- Usercompanies::SessionsController -->
<g id="node8" class="node"><title>Usercompanies::SessionsController</title>
<path fill="none" stroke="black" d="M-141,-154C-141,-154 45,-154 45,-154 51,-154 57,-160 57,-166 57,-166 57,-250 57,-250 57,-256 51,-262 45,-262 45,-262 -141,-262 -141,-262 -147,-262 -153,-256 -153,-250 -153,-250 -153,-166 -153,-166 -153,-160 -147,-154 -141,-154"/>
<text text-anchor="middle" x="-48" y="-246.8" font-family="Times,serif" font-size="14.00">Usercompanies::SessionsController</text>
<polyline fill="none" stroke="black" points="-153,-239 57,-239 "/>
<text text-anchor="start" x="-145" y="-223.8" font-family="Times,serif" font-size="14.00">after_sign_in_path_for</text>
<text text-anchor="start" x="-145" y="-208.8" font-family="Times,serif" font-size="14.00">after_sign_out_path_for</text>
<polyline fill="none" stroke="black" points="-153,-201 57,-201 "/>
<polyline fill="none" stroke="black" points="-153,-177 57,-177 "/>
<text text-anchor="start" x="-145" y="-161.8" font-family="Times,serif" font-size="14.00">_layout</text>
</g>
<!-- Usercompanies::UnlocksController -->
<g id="node9" class="node"><title>Usercompanies::UnlocksController</title>
<path fill="none" stroke="black" d="M233.5,-222C233.5,-222 418.5,-222 418.5,-222 424.5,-222 430.5,-228 430.5,-234 430.5,-234 430.5,-304 430.5,-304 430.5,-310 424.5,-316 418.5,-316 418.5,-316 233.5,-316 233.5,-316 227.5,-316 221.5,-310 221.5,-304 221.5,-304 221.5,-234 221.5,-234 221.5,-228 227.5,-222 233.5,-222"/>
<text text-anchor="middle" x="326" y="-300.8" font-family="Times,serif" font-size="14.00">Usercompanies::UnlocksController</text>
<polyline fill="none" stroke="black" points="221.5,-293 430.5,-293 "/>
<polyline fill="none" stroke="black" points="221.5,-269 430.5,-269 "/>
<polyline fill="none" stroke="black" points="221.5,-245 430.5,-245 "/>
<text text-anchor="start" x="229.5" y="-229.8" font-family="Times,serif" font-size="14.00">_layout</text>
</g>
<!-- Users::ConfirmationsController -->
<g id="node10" class="node"><title>Users::ConfirmationsController</title>
<path fill="none" stroke="black" d="M12.5,-290C12.5,-290 177.5,-290 177.5,-290 183.5,-290 189.5,-296 189.5,-302 189.5,-302 189.5,-372 189.5,-372 189.5,-378 183.5,-384 177.5,-384 177.5,-384 12.5,-384 12.5,-384 6.5,-384 0.5,-378 0.5,-372 0.5,-372 0.5,-302 0.5,-302 0.5,-296 6.5,-290 12.5,-290"/>
<text text-anchor="middle" x="95" y="-368.8" font-family="Times,serif" font-size="14.00">Users::ConfirmationsController</text>
<polyline fill="none" stroke="black" points="0.5,-361 189.5,-361 "/>
<polyline fill="none" stroke="black" points="0.5,-337 189.5,-337 "/>
<polyline fill="none" stroke="black" points="0.5,-313 189.5,-313 "/>
<text text-anchor="start" x="8.5" y="-297.8" font-family="Times,serif" font-size="14.00">_layout</text>
</g>
<!-- Users::OmniauthCallbacksController -->
<g id="node11" class="node"><title>Users::OmniauthCallbacksController</title>
<path fill="none" stroke="black" d="M-243,186C-243,186 -49,186 -49,186 -43,186 -37,180 -37,174 -37,174 -37,104 -37,104 -37,98 -43,92 -49,92 -49,92 -243,92 -243,92 -249,92 -255,98 -255,104 -255,104 -255,174 -255,174 -255,180 -249,186 -243,186"/>
<text text-anchor="middle" x="-146" y="107.2" font-family="Times,serif" font-size="14.00">Users::OmniauthCallbacksController</text>
<polyline fill="none" stroke="black" points="-255,115 -37,115 "/>
<polyline fill="none" stroke="black" points="-255,139 -37,139 "/>
<polyline fill="none" stroke="black" points="-255,163 -37,163 "/>
<text text-anchor="start" x="-247" y="178.2" font-family="Times,serif" font-size="14.00">_layout</text>
</g>
<!-- Users::PasswordsController -->
<g id="node12" class="node"><title>Users::PasswordsController</title>
<path fill="none" stroke="black" d="M11.5,288.5C11.5,288.5 192.5,288.5 192.5,288.5 198.5,288.5 204.5,282.5 204.5,276.5 204.5,276.5 204.5,207.5 204.5,207.5 204.5,201.5 198.5,195.5 192.5,195.5 192.5,195.5 11.5,195.5 11.5,195.5 5.5,195.5 -0.5,201.5 -0.5,207.5 -0.5,207.5 -0.5,276.5 -0.5,276.5 -0.5,282.5 5.5,288.5 11.5,288.5"/>
<text text-anchor="middle" x="102" y="210.7" font-family="Times,serif" font-size="14.00">Users::PasswordsController</text>
<polyline fill="none" stroke="black" points="-0.5,218.5 204.5,218.5 "/>
<text text-anchor="start" x="7.5" y="233.7" font-family="Times,serif" font-size="14.00">after_resetting_password_path_for</text>
<polyline fill="none" stroke="black" points="-0.5,241.5 204.5,241.5 "/>
<polyline fill="none" stroke="black" points="-0.5,265.5 204.5,265.5 "/>
<text text-anchor="start" x="7.5" y="280.7" font-family="Times,serif" font-size="14.00">_layout</text>
</g>
<!-- Users::RegistrationsController -->
<g id="node13" class="node"><title>Users::RegistrationsController</title>
<path fill="none" stroke="black" d="M-209,-289.5C-209,-289.5 -51,-289.5 -51,-289.5 -45,-289.5 -39,-295.5 -39,-301.5 -39,-301.5 -39,-370.5 -39,-370.5 -39,-376.5 -45,-382.5 -51,-382.5 -51,-382.5 -209,-382.5 -209,-382.5 -215,-382.5 -221,-376.5 -221,-370.5 -221,-370.5 -221,-301.5 -221,-301.5 -221,-295.5 -215,-289.5 -209,-289.5"/>
<text text-anchor="middle" x="-130" y="-367.3" font-family="Times,serif" font-size="14.00">Users::RegistrationsController</text>
<polyline fill="none" stroke="black" points="-221,-359.5 -39,-359.5 "/>
<text text-anchor="start" x="-213" y="-344.3" font-family="Times,serif" font-size="14.00">after_sign_up_path_for</text>
<polyline fill="none" stroke="black" points="-221,-336.5 -39,-336.5 "/>
<polyline fill="none" stroke="black" points="-221,-312.5 -39,-312.5 "/>
<text text-anchor="start" x="-213" y="-297.3" font-family="Times,serif" font-size="14.00">_layout</text>
</g>
<!-- Users::SessionsController -->
<g id="node14" class="node"><title>Users::SessionsController</title>
<path fill="none" stroke="black" d="M-310.5,-18C-310.5,-18 -177.5,-18 -177.5,-18 -171.5,-18 -165.5,-24 -165.5,-30 -165.5,-30 -165.5,-114 -165.5,-114 -165.5,-120 -171.5,-126 -177.5,-126 -177.5,-126 -310.5,-126 -310.5,-126 -316.5,-126 -322.5,-120 -322.5,-114 -322.5,-114 -322.5,-30 -322.5,-30 -322.5,-24 -316.5,-18 -310.5,-18"/>
<text text-anchor="middle" x="-244" y="-110.8" font-family="Times,serif" font-size="14.00">Users::SessionsController</text>
<polyline fill="none" stroke="black" points="-322.5,-103 -165.5,-103 "/>
<text text-anchor="start" x="-314.5" y="-87.8" font-family="Times,serif" font-size="14.00">after_sign_in_path_for</text>
<text text-anchor="start" x="-314.5" y="-72.8" font-family="Times,serif" font-size="14.00">after_sign_out_path_for</text>
<polyline fill="none" stroke="black" points="-322.5,-65 -165.5,-65 "/>
<polyline fill="none" stroke="black" points="-322.5,-41 -165.5,-41 "/>
<text text-anchor="start" x="-314.5" y="-25.8" font-family="Times,serif" font-size="14.00">_layout</text>
</g>
<!-- Users::UnlocksController -->
<g id="node15" class="node"><title>Users::UnlocksController</title>
<path fill="none" stroke="black" d="M-310.5,322C-310.5,322 -179.5,322 -179.5,322 -173.5,322 -167.5,316 -167.5,310 -167.5,310 -167.5,240 -167.5,240 -167.5,234 -173.5,228 -179.5,228 -179.5,228 -310.5,228 -310.5,228 -316.5,228 -322.5,234 -322.5,240 -322.5,240 -322.5,310 -322.5,310 -322.5,316 -316.5,322 -310.5,322"/>
<text text-anchor="middle" x="-245" y="243.2" font-family="Times,serif" font-size="14.00">Users::UnlocksController</text>
<polyline fill="none" stroke="black" points="-322.5,251 -167.5,251 "/>
<polyline fill="none" stroke="black" points="-322.5,275 -167.5,275 "/>
<polyline fill="none" stroke="black" points="-322.5,299 -167.5,299 "/>
<text text-anchor="start" x="-314.5" y="314.2" font-family="Times,serif" font-size="14.00">_layout</text>
</g>
</g>
</svg>
