<?xml version="1.0" encoding="UTF-8" standalone="no"?>
<!DOCTYPE svg PUBLIC "-//W3C//DTD SVG 1.1//EN"
 "http://www.w3.org/Graphics/SVG/1.1/DTD/svg11.dtd">
<!-- Generated by graphviz version 2.38.0 (20140413.2041)
 -->
<!-- Title: controllers_diagram Pages: 1 -->
<svg width="848pt" height="725pt"
 viewBox="0.00 0.00 848.46 725.00" xmlns="http://www.w3.org/2000/svg" xmlns:xlink="http://www.w3.org/1999/xlink">
<g id="graph0" class="graph" transform="scale(1 1) rotate(0) translate(309.879 432.5)">
<title>controllers_diagram</title>
<polygon fill="none" stroke="none" points="-309.879,292.5 -309.879,-432.5 538.58,-432.5 538.58,292.5 -309.879,292.5"/>
<!-- _diagram_info -->
<g id="node1" class="node"><title>_diagram_info</title>
<text text-anchor="start" x="161.312" y="-25.1" font-family="Times,serif" font-size="13.00">Controllers diagram</text>
<text text-anchor="start" x="161.312" y="-12.1" font-family="Times,serif" font-size="13.00">Date: Aug 17 2016 &#45; 22:01</text>
<text text-anchor="start" x="161.312" y="0.9" font-family="Times,serif" font-size="13.00">Migration version: 20160818001638</text>
<text text-anchor="start" x="161.312" y="13.9" font-family="Times,serif" font-size="13.00">Generated by RailRoady 1.5.1</text>
<text text-anchor="start" x="161.312" y="26.9" font-family="Times,serif" font-size="13.00">http://railroady.prestonlee.com</text>
</g>
<!-- ApplicationController -->
<g id="node2" class="node"><title>ApplicationController</title>
<path fill="none" stroke="black" d="M-21.8208,-324C-21.8208,-324 93.8208,-324 93.8208,-324 99.8208,-324 105.821,-330 105.821,-336 105.821,-336 105.821,-404 105.821,-404 105.821,-410 99.8208,-416 93.8208,-416 93.8208,-416 -21.8208,-416 -21.8208,-416 -27.8208,-416 -33.8208,-410 -33.8208,-404 -33.8208,-404 -33.8208,-336 -33.8208,-336 -33.8208,-330 -27.8208,-324 -21.8208,-324"/>
<text text-anchor="middle" x="36" y="-400.8" font-family="Times,serif" font-size="14.00">ApplicationController</text>
<polyline fill="none" stroke="black" points="-33.8208,-394 105.821,-394 "/>
<polyline fill="none" stroke="black" points="-33.8208,-370 105.821,-370 "/>
<polyline fill="none" stroke="black" points="-33.8208,-346 105.821,-346 "/>
<text text-anchor="start" x="-25.8208" y="-330.8" font-family="Times,serif" font-size="14.00">_layout</text>
</g>
<!-- HomeController -->
<g id="node3" class="node"><title>HomeController</title>
<path fill="none" stroke="black" d="M-293.879,67C-293.879,67 -210.121,67 -210.121,67 -204.121,67 -198.121,61 -198.121,55 -198.121,55 -198.121,-25 -198.121,-25 -198.121,-31 -204.121,-37 -210.121,-37 -210.121,-37 -293.879,-37 -293.879,-37 -299.879,-37 -305.879,-31 -305.879,-25 -305.879,-25 -305.879,55 -305.879,55 -305.879,61 -299.879,67 -293.879,67"/>
<text text-anchor="middle" x="-252" y="-21.8" font-family="Times,serif" font-size="14.00">HomeController</text>
<polyline fill="none" stroke="black" points="-305.879,-15 -198.121,-15 "/>
<text text-anchor="start" x="-297.879" y="0.2" font-family="Times,serif" font-size="14.00">user</text>
<text text-anchor="start" x="-297.879" y="14.2" font-family="Times,serif" font-size="14.00">usercompanies</text>
<polyline fill="none" stroke="black" points="-305.879,21 -198.121,21 "/>
<polyline fill="none" stroke="black" points="-305.879,45 -198.121,45 "/>
<text text-anchor="start" x="-297.879" y="60.2" font-family="Times,serif" font-size="14.00">_layout</text>
</g>
<!-- Usercompanies::ConfirmationsController -->
<g id="node4" class="node"><title>Usercompanies::ConfirmationsController</title>
<path fill="none" stroke="black" d="M80.1274,-69C80.1274,-69 303.873,-69 303.873,-69 309.873,-69 315.873,-75 315.873,-81 315.873,-81 315.873,-149 315.873,-149 315.873,-155 309.873,-161 303.873,-161 303.873,-161 80.1274,-161 80.1274,-161 74.1274,-161 68.1274,-155 68.1274,-149 68.1274,-149 68.1274,-81 68.1274,-81 68.1274,-75 74.1274,-69 80.1274,-69"/>
<text text-anchor="middle" x="192" y="-145.8" font-family="Times,serif" font-size="14.00">Usercompanies::ConfirmationsController</text>
<polyline fill="none" stroke="black" points="68.1274,-139 315.873,-139 "/>
<polyline fill="none" stroke="black" points="68.1274,-115 315.873,-115 "/>
<polyline fill="none" stroke="black" points="68.1274,-91 315.873,-91 "/>
<text text-anchor="start" x="76.1274" y="-75.8" font-family="Times,serif" font-size="14.00">_layout</text>
</g>
<!-- Usercompanies::OmniauthCallbacksController -->
<g id="node5" class="node"><title>Usercompanies::OmniauthCallbacksController</title>
<path fill="none" stroke="black" d="M-141.414,50C-141.414,50 113.414,50 113.414,50 119.414,50 125.414,44 125.414,38 125.414,38 125.414,-30 125.414,-30 125.414,-36 119.414,-42 113.414,-42 113.414,-42 -141.414,-42 -141.414,-42 -147.414,-42 -153.414,-36 -153.414,-30 -153.414,-30 -153.414,38 -153.414,38 -153.414,44 -147.414,50 -141.414,50"/>
<text text-anchor="middle" x="-14" y="-26.8" font-family="Times,serif" font-size="14.00">Usercompanies::OmniauthCallbacksController</text>
<polyline fill="none" stroke="black" points="-153.414,-20 125.414,-20 "/>
<polyline fill="none" stroke="black" points="-153.414,4 125.414,4 "/>
<polyline fill="none" stroke="black" points="-153.414,28 125.414,28 "/>
<text text-anchor="start" x="-145.414" y="43.2" font-family="Times,serif" font-size="14.00">_layout</text>
</g>
<!-- Usercompanies::PasswordsController -->
<g id="node6" class="node"><title>Usercompanies::PasswordsController</title>
<path fill="none" stroke="black" d="M-158.373,169C-158.373,169 44.3726,169 44.3726,169 50.3726,169 56.3726,163 56.3726,157 56.3726,157 56.3726,91 56.3726,91 56.3726,85 50.3726,79 44.3726,79 44.3726,79 -158.373,79 -158.373,79 -164.373,79 -170.373,85 -170.373,91 -170.373,91 -170.373,157 -170.373,157 -170.373,163 -164.373,169 -158.373,169"/>
<text text-anchor="middle" x="-57" y="94.2" font-family="Times,serif" font-size="14.00">Usercompanies::PasswordsController</text>
<polyline fill="none" stroke="black" points="-170.373,101 56.3726,101 "/>
<text text-anchor="start" x="-162.373" y="116.2" font-family="Times,serif" font-size="14.00">after_resetting_password_path_for</text>
<polyline fill="none" stroke="black" points="-170.373,123 56.3726,123 "/>
<polyline fill="none" stroke="black" points="-170.373,147 56.3726,147 "/>
<text text-anchor="start" x="-162.373" y="162.2" font-family="Times,serif" font-size="14.00">_layout</text>
</g>
<!-- Usercompanies::RegistrationsController -->
<g id="node7" class="node"><title>Usercompanies::RegistrationsController</title>
<path fill="none" stroke="black" d="M165.245,152C165.245,152 382.755,152 382.755,152 388.755,152 394.755,146 394.755,140 394.755,140 394.755,74 394.755,74 394.755,68 388.755,62 382.755,62 382.755,62 165.245,62 165.245,62 159.245,62 153.245,68 153.245,74 153.245,74 153.245,140 153.245,140 153.245,146 159.245,152 165.245,152"/>
<text text-anchor="middle" x="274" y="77.2" font-family="Times,serif" font-size="14.00">Usercompanies::RegistrationsController</text>
<polyline fill="none" stroke="black" points="153.245,84 394.755,84 "/>
<text text-anchor="start" x="161.245" y="99.2" font-family="Times,serif" font-size="14.00">after_sign_up_path_for</text>
<polyline fill="none" stroke="black" points="153.245,106 394.755,106 "/>
<polyline fill="none" stroke="black" points="153.245,130 394.755,130 "/>
<text text-anchor="start" x="161.245" y="145.2" font-family="Times,serif" font-size="14.00">_layout</text>
</g>
<!-- Usercompanies::SessionsController -->
<g id="node8" class="node"><title>Usercompanies::SessionsController</title>
<path fill="none" stroke="black" d="M199.069,-188C199.069,-188 390.931,-188 390.931,-188 396.931,-188 402.931,-194 402.931,-200 402.931,-200 402.931,-280 402.931,-280 402.931,-286 396.931,-292 390.931,-292 390.931,-292 199.069,-292 199.069,-292 193.069,-292 187.069,-286 187.069,-280 187.069,-280 187.069,-200 187.069,-200 187.069,-194 193.069,-188 199.069,-188"/>
<text text-anchor="middle" x="295" y="-276.8" font-family="Times,serif" font-size="14.00">Usercompanies::SessionsController</text>
<polyline fill="none" stroke="black" points="187.069,-270 402.931,-270 "/>
<text text-anchor="start" x="195.069" y="-254.8" font-family="Times,serif" font-size="14.00">after_sign_in_path_for</text>
<text text-anchor="start" x="195.069" y="-240.8" font-family="Times,serif" font-size="14.00">after_sign_out_path_for</text>
<polyline fill="none" stroke="black" points="187.069,-234 402.931,-234 "/>
<polyline fill="none" stroke="black" points="187.069,-210 402.931,-210 "/>
<text text-anchor="start" x="195.069" y="-194.8" font-family="Times,serif" font-size="14.00">_layout</text>
</g>
<!-- Usercompanies::UnlocksController -->
<g id="node9" class="node"><title>Usercompanies::UnlocksController</title>
<path fill="none" stroke="black" d="M-277.145,288C-277.145,288 -86.855,288 -86.855,288 -80.855,288 -74.855,282 -74.855,276 -74.855,276 -74.855,208 -74.855,208 -74.855,202 -80.855,196 -86.855,196 -86.855,196 -277.145,196 -277.145,196 -283.145,196 -289.145,202 -289.145,208 -289.145,208 -289.145,276 -289.145,276 -289.145,282 -283.145,288 -277.145,288"/>
<text text-anchor="middle" x="-182" y="211.2" font-family="Times,serif" font-size="14.00">Usercompanies::UnlocksController</text>
<polyline fill="none" stroke="black" points="-289.145,218 -74.855,218 "/>
<polyline fill="none" stroke="black" points="-289.145,242 -74.855,242 "/>
<polyline fill="none" stroke="black" points="-289.145,266 -74.855,266 "/>
<text text-anchor="start" x="-281.145" y="281.2" font-family="Times,serif" font-size="14.00">_layout</text>
</g>
<!-- Users::ConfirmationsController -->
<g id="node10" class="node"><title>Users::ConfirmationsController</title>
<path fill="none" stroke="black" d="M-293.662,-307C-293.662,-307 -124.338,-307 -124.338,-307 -118.338,-307 -112.338,-313 -112.338,-319 -112.338,-319 -112.338,-387 -112.338,-387 -112.338,-393 -118.338,-399 -124.338,-399 -124.338,-399 -293.662,-399 -293.662,-399 -299.662,-399 -305.662,-393 -305.662,-387 -305.662,-387 -305.662,-319 -305.662,-319 -305.662,-313 -299.662,-307 -293.662,-307"/>
<text text-anchor="middle" x="-209" y="-383.8" font-family="Times,serif" font-size="14.00">Users::ConfirmationsController</text>
<polyline fill="none" stroke="black" points="-305.662,-377 -112.338,-377 "/>
<polyline fill="none" stroke="black" points="-305.662,-353 -112.338,-353 "/>
<polyline fill="none" stroke="black" points="-305.662,-329 -112.338,-329 "/>
<text text-anchor="start" x="-297.662" y="-313.8" font-family="Times,serif" font-size="14.00">_layout</text>
</g>
<!-- Users::OmniauthCallbacksController -->
<g id="node11" class="node"><title>Users::OmniauthCallbacksController</title>
<path fill="none" stroke="black" d="M96.7964,271C96.7964,271 297.204,271 297.204,271 303.204,271 309.204,265 309.204,259 309.204,259 309.204,191 309.204,191 309.204,185 303.204,179 297.204,179 297.204,179 96.7964,179 96.7964,179 90.7964,179 84.7964,185 84.7964,191 84.7964,191 84.7964,259 84.7964,259 84.7964,265 90.7964,271 96.7964,271"/>
<text text-anchor="middle" x="197" y="194.2" font-family="Times,serif" font-size="14.00">Users::OmniauthCallbacksController</text>
<polyline fill="none" stroke="black" points="84.7964,201 309.204,201 "/>
<polyline fill="none" stroke="black" points="84.7964,225 309.204,225 "/>
<polyline fill="none" stroke="black" points="84.7964,249 309.204,249 "/>
<text text-anchor="start" x="92.7964" y="264.2" font-family="Times,serif" font-size="14.00">_layout</text>
</g>
<!-- Users::PasswordsController -->
<g id="node12" class="node"><title>Users::PasswordsController</title>
<path fill="none" stroke="black" d="M335.42,-324C335.42,-324 522.58,-324 522.58,-324 528.58,-324 534.58,-330 534.58,-336 534.58,-336 534.58,-402 534.58,-402 534.58,-408 528.58,-414 522.58,-414 522.58,-414 335.42,-414 335.42,-414 329.42,-414 323.42,-408 323.42,-402 323.42,-402 323.42,-336 323.42,-336 323.42,-330 329.42,-324 335.42,-324"/>
<text text-anchor="middle" x="429" y="-398.8" font-family="Times,serif" font-size="14.00">Users::PasswordsController</text>
<polyline fill="none" stroke="black" points="323.42,-392 534.58,-392 "/>
<text text-anchor="start" x="331.42" y="-376.8" font-family="Times,serif" font-size="14.00">after_resetting_password_path_for</text>
<polyline fill="none" stroke="black" points="323.42,-370 534.58,-370 "/>
<polyline fill="none" stroke="black" points="323.42,-346 534.58,-346 "/>
<text text-anchor="start" x="331.42" y="-330.8" font-family="Times,serif" font-size="14.00">_layout</text>
</g>
<!-- Users::RegistrationsController -->
<g id="node13" class="node"><title>Users::RegistrationsController</title>
<path fill="none" stroke="black" d="M-293.545,-188C-293.545,-188 -130.455,-188 -130.455,-188 -124.455,-188 -118.455,-194 -118.455,-200 -118.455,-200 -118.455,-266 -118.455,-266 -118.455,-272 -124.455,-278 -130.455,-278 -130.455,-278 -293.545,-278 -293.545,-278 -299.545,-278 -305.545,-272 -305.545,-266 -305.545,-266 -305.545,-200 -305.545,-200 -305.545,-194 -299.545,-188 -293.545,-188"/>
<text text-anchor="middle" x="-212" y="-262.8" font-family="Times,serif" font-size="14.00">Users::RegistrationsController</text>
<polyline fill="none" stroke="black" points="-305.545,-256 -118.455,-256 "/>
<text text-anchor="start" x="-297.545" y="-240.8" font-family="Times,serif" font-size="14.00">after_sign_up_path_for</text>
<polyline fill="none" stroke="black" points="-305.545,-234 -118.455,-234 "/>
<polyline fill="none" stroke="black" points="-305.545,-210 -118.455,-210 "/>
<text text-anchor="start" x="-297.545" y="-194.8" font-family="Times,serif" font-size="14.00">_layout</text>
</g>
<!-- Users::SessionsController -->
<g id="node14" class="node"><title>Users::SessionsController</title>
<path fill="none" stroke="black" d="M148.279,-324C148.279,-324 285.721,-324 285.721,-324 291.721,-324 297.721,-330 297.721,-336 297.721,-336 297.721,-416 297.721,-416 297.721,-422 291.721,-428 285.721,-428 285.721,-428 148.279,-428 148.279,-428 142.279,-428 136.279,-422 136.279,-416 136.279,-416 136.279,-336 136.279,-336 136.279,-330 142.279,-324 148.279,-324"/>
<text text-anchor="middle" x="217" y="-412.8" font-family="Times,serif" font-size="14.00">Users::SessionsController</text>
<polyline fill="none" stroke="black" points="136.279,-406 297.721,-406 "/>
<text text-anchor="start" x="144.279" y="-390.8" font-family="Times,serif" font-size="14.00">after_sign_in_path_for</text>
<text text-anchor="start" x="144.279" y="-376.8" font-family="Times,serif" font-size="14.00">after_sign_out_path_for</text>
<polyline fill="none" stroke="black" points="136.279,-370 297.721,-370 "/>
<polyline fill="none" stroke="black" points="136.279,-346 297.721,-346 "/>
<text text-anchor="start" x="144.279" y="-330.8" font-family="Times,serif" font-size="14.00">_layout</text>
</g>
<!-- Users::UnlocksController -->
<g id="node15" class="node"><title>Users::UnlocksController</title>
<path fill="none" stroke="black" d="M-259.935,-69C-259.935,-69 -124.065,-69 -124.065,-69 -118.065,-69 -112.065,-75 -112.065,-81 -112.065,-81 -112.065,-149 -112.065,-149 -112.065,-155 -118.065,-161 -124.065,-161 -124.065,-161 -259.935,-161 -259.935,-161 -265.935,-161 -271.935,-155 -271.935,-149 -271.935,-149 -271.935,-81 -271.935,-81 -271.935,-75 -265.935,-69 -259.935,-69"/>
<text text-anchor="middle" x="-192" y="-145.8" font-family="Times,serif" font-size="14.00">Users::UnlocksController</text>
<polyline fill="none" stroke="black" points="-271.935,-139 -112.065,-139 "/>
<polyline fill="none" stroke="black" points="-271.935,-115 -112.065,-115 "/>
<polyline fill="none" stroke="black" points="-271.935,-91 -112.065,-91 "/>
<text text-anchor="start" x="-263.935" y="-75.8" font-family="Times,serif" font-size="14.00">_layout</text>
</g>
<!-- WorksController -->
<g id="node16" class="node"><title>WorksController</title>
<path fill="none" stroke="black" d="M-73.4209,-86C-73.4209,-86 27.4209,-86 27.4209,-86 33.4209,-86 39.4209,-92 39.4209,-98 39.4209,-98 39.4209,-276 39.4209,-276 39.4209,-282 33.4209,-288 27.4209,-288 27.4209,-288 -73.4209,-288 -73.4209,-288 -79.4209,-288 -85.4209,-282 -85.4209,-276 -85.4209,-276 -85.4209,-98 -85.4209,-98 -85.4209,-92 -79.4209,-86 -73.4209,-86"/>
<text text-anchor="middle" x="-23" y="-272.8" font-family="Times,serif" font-size="14.00">WorksController</text>
<polyline fill="none" stroke="black" points="-85.4209,-266 39.4209,-266 "/>
<polyline fill="none" stroke="black" points="-85.4209,-242 39.4209,-242 "/>
<text text-anchor="start" x="-77.4209" y="-226.8" font-family="Times,serif" font-size="14.00">resource_url</text>
<text text-anchor="start" x="-77.4209" y="-212.8" font-family="Times,serif" font-size="14.00">collection_url</text>
<text text-anchor="start" x="-77.4209" y="-198.8" font-family="Times,serif" font-size="14.00">edit_resource_path</text>
<text text-anchor="start" x="-77.4209" y="-184.8" font-family="Times,serif" font-size="14.00">edit_resource_url</text>
<text text-anchor="start" x="-77.4209" y="-170.8" font-family="Times,serif" font-size="14.00">new_resource_path</text>
<text text-anchor="start" x="-77.4209" y="-156.8" font-family="Times,serif" font-size="14.00">new_resource_url</text>
<text text-anchor="start" x="-77.4209" y="-142.8" font-family="Times,serif" font-size="14.00">resource_path</text>
<text text-anchor="start" x="-77.4209" y="-128.8" font-family="Times,serif" font-size="14.00">collection_path</text>
<polyline fill="none" stroke="black" points="-85.4209,-122 39.4209,-122 "/>
<text text-anchor="start" x="-77.4209" y="-106.8" font-family="Times,serif" font-size="14.00">_layout</text>
<text text-anchor="start" x="-77.4209" y="-92.8" font-family="Times,serif" font-size="14.00">work_params</text>
</g>
</g>
</svg>
