<?xml version="1.0" encoding="UTF-8" standalone="no"?>
<!DOCTYPE svg PUBLIC "-//W3C//DTD SVG 1.1//EN"
 "http://www.w3.org/Graphics/SVG/1.1/DTD/svg11.dtd">
<!-- Generated by graphviz version 2.38.0 (20140413.2041)
 -->
<!-- Title: models_diagram Pages: 1 -->
<svg width="918pt" height="789pt"
 viewBox="0.00 0.00 917.51 789.00" xmlns="http://www.w3.org/2000/svg" xmlns:xlink="http://www.w3.org/1999/xlink">
<g id="graph0" class="graph" transform="scale(1 1) rotate(0) translate(4 785)">
<title>models_diagram</title>
<polygon fill="none" stroke="none" points="-4,4 -4,-785 913.512,-785 913.512,4 -4,4"/>
<!-- _diagram_info -->
<g id="node1" class="node"><title>_diagram_info</title>
<text text-anchor="start" x="8" y="-696.6" font-family="Times,serif" font-size="13.00">Models diagram</text>
<text text-anchor="start" x="8" y="-683.6" font-family="Times,serif" font-size="13.00">Date: Aug 17 2016 &#45; 22:01</text>
<text text-anchor="start" x="8" y="-670.6" font-family="Times,serif" font-size="13.00">Migration version: 20160818001638</text>
<text text-anchor="start" x="8" y="-657.6" font-family="Times,serif" font-size="13.00">Generated by RailRoady 1.5.1</text>
<text text-anchor="start" x="8" y="-644.6" font-family="Times,serif" font-size="13.00">http://railroady.prestonlee.com</text>
</g>
<!-- AdminUser -->
<g id="node2" class="node"><title>AdminUser</title>
<path fill="none" stroke="black" d="M237.053,-568.5C237.053,-568.5 532.323,-568.5 532.323,-568.5 538.323,-568.5 544.323,-574.5 544.323,-580.5 544.323,-580.5 544.323,-768.5 544.323,-768.5 544.323,-774.5 538.323,-780.5 532.323,-780.5 532.323,-780.5 237.053,-780.5 237.053,-780.5 231.053,-780.5 225.053,-774.5 225.053,-768.5 225.053,-768.5 225.053,-580.5 225.053,-580.5 225.053,-574.5 231.053,-568.5 237.053,-568.5"/>
<text text-anchor="middle" x="384.688" y="-765.3" font-family="Times,serif" font-size="14.00">AdminUser</text>
<polyline fill="none" stroke="black" points="225.053,-758.5 544.323,-758.5 "/>
<text text-anchor="start" x="233.053" y="-743.3" font-family="Times,serif" font-size="14.00">updated_at :timestamp without time zone</text>
<text text-anchor="start" x="233.053" y="-729.3" font-family="Times,serif" font-size="14.00">email :character varying</text>
<text text-anchor="start" x="233.053" y="-715.3" font-family="Times,serif" font-size="14.00">encrypted_password :character varying</text>
<text text-anchor="start" x="233.053" y="-701.3" font-family="Times,serif" font-size="14.00">reset_password_token :character varying</text>
<text text-anchor="start" x="233.053" y="-687.3" font-family="Times,serif" font-size="14.00">reset_password_sent_at :timestamp without time zone</text>
<text text-anchor="start" x="233.053" y="-673.3" font-family="Times,serif" font-size="14.00">remember_created_at :timestamp without time zone</text>
<text text-anchor="start" x="233.053" y="-659.3" font-family="Times,serif" font-size="14.00">sign_in_count :integer</text>
<text text-anchor="start" x="233.053" y="-645.3" font-family="Times,serif" font-size="14.00">current_sign_in_at :timestamp without time zone</text>
<text text-anchor="start" x="233.053" y="-631.3" font-family="Times,serif" font-size="14.00">last_sign_in_at :timestamp without time zone</text>
<text text-anchor="start" x="233.053" y="-617.3" font-family="Times,serif" font-size="14.00">current_sign_in_ip :inet</text>
<text text-anchor="start" x="233.053" y="-603.3" font-family="Times,serif" font-size="14.00">last_sign_in_ip :inet</text>
<text text-anchor="start" x="233.053" y="-589.3" font-family="Times,serif" font-size="14.00">created_at :timestamp without time zone</text>
<text text-anchor="start" x="233.053" y="-575.3" font-family="Times,serif" font-size="14.00">id :integer</text>
</g>
<!-- Company -->
<g id="node3" class="node"><title>Company</title>
<path fill="none" stroke="black" d="M573.825,-603.5C573.825,-603.5 797.55,-603.5 797.55,-603.5 803.55,-603.5 809.55,-609.5 809.55,-615.5 809.55,-615.5 809.55,-733.5 809.55,-733.5 809.55,-739.5 803.55,-745.5 797.55,-745.5 797.55,-745.5 573.825,-745.5 573.825,-745.5 567.825,-745.5 561.825,-739.5 561.825,-733.5 561.825,-733.5 561.825,-615.5 561.825,-615.5 561.825,-609.5 567.825,-603.5 573.825,-603.5"/>
<text text-anchor="middle" x="685.688" y="-730.3" font-family="Times,serif" font-size="14.00">Company</text>
<polyline fill="none" stroke="black" points="561.825,-723.5 809.55,-723.5 "/>
<text text-anchor="start" x="569.825" y="-708.3" font-family="Times,serif" font-size="14.00">updated_at :timestamp without time zone</text>
<text text-anchor="start" x="569.825" y="-694.3" font-family="Times,serif" font-size="14.00">name :character varying</text>
<text text-anchor="start" x="569.825" y="-680.3" font-family="Times,serif" font-size="14.00">rut :character varying</text>
<text text-anchor="start" x="569.825" y="-666.3" font-family="Times,serif" font-size="14.00">phone :character varying</text>
<text text-anchor="start" x="569.825" y="-652.3" font-family="Times,serif" font-size="14.00">address :character varying</text>
<text text-anchor="start" x="569.825" y="-638.3" font-family="Times,serif" font-size="14.00">activity :character varying</text>
<text text-anchor="start" x="569.825" y="-624.3" font-family="Times,serif" font-size="14.00">created_at :timestamp without time zone</text>
<text text-anchor="start" x="569.825" y="-610.3" font-family="Times,serif" font-size="14.00">id :integer</text>
</g>
<!-- User -->
<g id="node4" class="node"><title>User</title>
<path fill="none" stroke="black" d="M201.053,-200.5C201.053,-200.5 496.323,-200.5 496.323,-200.5 502.323,-200.5 508.323,-206.5 508.323,-212.5 508.323,-212.5 508.323,-512.5 508.323,-512.5 508.323,-518.5 502.323,-524.5 496.323,-524.5 496.323,-524.5 201.053,-524.5 201.053,-524.5 195.053,-524.5 189.053,-518.5 189.053,-512.5 189.053,-512.5 189.053,-212.5 189.053,-212.5 189.053,-206.5 195.053,-200.5 201.053,-200.5"/>
<text text-anchor="middle" x="348.688" y="-509.3" font-family="Times,serif" font-size="14.00">User</text>
<polyline fill="none" stroke="black" points="189.053,-502.5 508.323,-502.5 "/>
<text text-anchor="start" x="197.053" y="-487.3" font-family="Times,serif" font-size="14.00">confirmation_sent_at :timestamp without time zone</text>
<text text-anchor="start" x="197.053" y="-473.3" font-family="Times,serif" font-size="14.00">email :character varying</text>
<text text-anchor="start" x="197.053" y="-459.3" font-family="Times,serif" font-size="14.00">encrypted_password :character varying</text>
<text text-anchor="start" x="197.053" y="-445.3" font-family="Times,serif" font-size="14.00">reset_password_token :character varying</text>
<text text-anchor="start" x="197.053" y="-431.3" font-family="Times,serif" font-size="14.00">reset_password_sent_at :timestamp without time zone</text>
<text text-anchor="start" x="197.053" y="-417.3" font-family="Times,serif" font-size="14.00">remember_created_at :timestamp without time zone</text>
<text text-anchor="start" x="197.053" y="-403.3" font-family="Times,serif" font-size="14.00">sign_in_count :integer</text>
<text text-anchor="start" x="197.053" y="-389.3" font-family="Times,serif" font-size="14.00">current_sign_in_at :timestamp without time zone</text>
<text text-anchor="start" x="197.053" y="-375.3" font-family="Times,serif" font-size="14.00">last_sign_in_at :timestamp without time zone</text>
<text text-anchor="start" x="197.053" y="-361.3" font-family="Times,serif" font-size="14.00">current_sign_in_ip :inet</text>
<text text-anchor="start" x="197.053" y="-347.3" font-family="Times,serif" font-size="14.00">last_sign_in_ip :inet</text>
<text text-anchor="start" x="197.053" y="-333.3" font-family="Times,serif" font-size="14.00">firstname :character varying</text>
<text text-anchor="start" x="197.053" y="-319.3" font-family="Times,serif" font-size="14.00">lastname :character varying</text>
<text text-anchor="start" x="197.053" y="-305.3" font-family="Times,serif" font-size="14.00">phone :character varying</text>
<text text-anchor="start" x="197.053" y="-291.3" font-family="Times,serif" font-size="14.00">dni :character varying</text>
<text text-anchor="start" x="197.053" y="-277.3" font-family="Times,serif" font-size="14.00">birthday :date</text>
<text text-anchor="start" x="197.053" y="-263.3" font-family="Times,serif" font-size="14.00">created_at :timestamp without time zone</text>
<text text-anchor="start" x="197.053" y="-249.3" font-family="Times,serif" font-size="14.00">updated_at :timestamp without time zone</text>
<text text-anchor="start" x="197.053" y="-235.3" font-family="Times,serif" font-size="14.00">confirmation_token :character varying</text>
<text text-anchor="start" x="197.053" y="-221.3" font-family="Times,serif" font-size="14.00">confirmed_at :timestamp without time zone</text>
<text text-anchor="start" x="197.053" y="-207.3" font-family="Times,serif" font-size="14.00">id :integer</text>
</g>
<!-- Company&#45;&gt;User -->
<g id="edge3" class="edge"><title>Company&#45;&gt;User</title>
<path fill="none" stroke="#c62d1e" d="M590.951,-596.728C566.389,-576.134 540.232,-553.583 516.688,-532 516.431,-531.764 516.174,-531.529 515.917,-531.293"/>
<polygon fill="#c62d1e" stroke="#c62d1e" points="591.192,-596.929 595.979,-606.794 595.028,-600.135 598.865,-603.341 598.865,-603.341 598.865,-603.341 595.028,-600.135 601.751,-599.889 591.192,-596.929 591.192,-596.929"/>
<polygon fill="#c62d1e" stroke="#c62d1e" points="515.772,-531.159 511.479,-521.068 512.099,-527.766 508.426,-524.374 508.426,-524.374 508.426,-524.374 512.099,-527.766 505.372,-527.679 515.772,-531.159 515.772,-531.159"/>
</g>
<!-- Usercompany -->
<g id="node5" class="node"><title>Usercompany</title>
<path fill="none" stroke="black" d="M538.053,-193.5C538.053,-193.5 833.323,-193.5 833.323,-193.5 839.323,-193.5 845.323,-199.5 845.323,-205.5 845.323,-205.5 845.323,-519.5 845.323,-519.5 845.323,-525.5 839.323,-531.5 833.323,-531.5 833.323,-531.5 538.053,-531.5 538.053,-531.5 532.053,-531.5 526.053,-525.5 526.053,-519.5 526.053,-519.5 526.053,-205.5 526.053,-205.5 526.053,-199.5 532.053,-193.5 538.053,-193.5"/>
<text text-anchor="middle" x="685.688" y="-516.3" font-family="Times,serif" font-size="14.00">Usercompany</text>
<polyline fill="none" stroke="black" points="526.053,-509.5 845.323,-509.5 "/>
<text text-anchor="start" x="534.053" y="-494.3" font-family="Times,serif" font-size="14.00">confirmation_sent_at :timestamp without time zone</text>
<text text-anchor="start" x="534.053" y="-480.3" font-family="Times,serif" font-size="14.00">email :character varying</text>
<text text-anchor="start" x="534.053" y="-466.3" font-family="Times,serif" font-size="14.00">encrypted_password :character varying</text>
<text text-anchor="start" x="534.053" y="-452.3" font-family="Times,serif" font-size="14.00">reset_password_token :character varying</text>
<text text-anchor="start" x="534.053" y="-438.3" font-family="Times,serif" font-size="14.00">reset_password_sent_at :timestamp without time zone</text>
<text text-anchor="start" x="534.053" y="-424.3" font-family="Times,serif" font-size="14.00">remember_created_at :timestamp without time zone</text>
<text text-anchor="start" x="534.053" y="-410.3" font-family="Times,serif" font-size="14.00">sign_in_count :integer</text>
<text text-anchor="start" x="534.053" y="-396.3" font-family="Times,serif" font-size="14.00">current_sign_in_at :timestamp without time zone</text>
<text text-anchor="start" x="534.053" y="-382.3" font-family="Times,serif" font-size="14.00">last_sign_in_at :timestamp without time zone</text>
<text text-anchor="start" x="534.053" y="-368.3" font-family="Times,serif" font-size="14.00">current_sign_in_ip :inet</text>
<text text-anchor="start" x="534.053" y="-354.3" font-family="Times,serif" font-size="14.00">last_sign_in_ip :inet</text>
<text text-anchor="start" x="534.053" y="-340.3" font-family="Times,serif" font-size="14.00">firstname :character varying</text>
<text text-anchor="start" x="534.053" y="-326.3" font-family="Times,serif" font-size="14.00">lastname :character varying</text>
<text text-anchor="start" x="534.053" y="-312.3" font-family="Times,serif" font-size="14.00">phone :character varying</text>
<text text-anchor="start" x="534.053" y="-298.3" font-family="Times,serif" font-size="14.00">dni :character varying</text>
<text text-anchor="start" x="534.053" y="-284.3" font-family="Times,serif" font-size="14.00">birthday :character varying</text>
<text text-anchor="start" x="534.053" y="-270.3" font-family="Times,serif" font-size="14.00">company_id :integer</text>
<text text-anchor="start" x="534.053" y="-256.3" font-family="Times,serif" font-size="14.00">created_at :timestamp without time zone</text>
<text text-anchor="start" x="534.053" y="-242.3" font-family="Times,serif" font-size="14.00">updated_at :timestamp without time zone</text>
<text text-anchor="start" x="534.053" y="-228.3" font-family="Times,serif" font-size="14.00">confirmation_token :character varying</text>
<text text-anchor="start" x="534.053" y="-214.3" font-family="Times,serif" font-size="14.00">confirmed_at :timestamp without time zone</text>
<text text-anchor="start" x="534.053" y="-200.3" font-family="Times,serif" font-size="14.00">id :integer</text>
</g>
<!-- Company&#45;&gt;Usercompany -->
<g id="edge1" class="edge"><title>Company&#45;&gt;Usercompany</title>
<path fill="none" stroke="#293b2f" d="M685.688,-594.907C685.688,-578.319 685.688,-560.174 685.688,-541.575"/>
<ellipse fill="none" stroke="#293b2f" cx="685.688" cy="-599.156" rx="4" ry="4"/>
<polygon fill="#293b2f" stroke="#293b2f" points="685.688,-541.51 690.188,-531.51 685.688,-536.51 685.688,-531.51 685.688,-531.51 685.688,-531.51 685.688,-536.51 681.188,-531.51 685.688,-541.51 685.688,-541.51"/>
</g>
<!-- Work -->
<g id="node6" class="node"><title>Work</title>
<path fill="none" stroke="black" d="M498.825,-0.5C498.825,-0.5 722.55,-0.5 722.55,-0.5 728.55,-0.5 734.55,-6.5 734.55,-12.5 734.55,-12.5 734.55,-144.5 734.55,-144.5 734.55,-150.5 728.55,-156.5 722.55,-156.5 722.55,-156.5 498.825,-156.5 498.825,-156.5 492.825,-156.5 486.825,-150.5 486.825,-144.5 486.825,-144.5 486.825,-12.5 486.825,-12.5 486.825,-6.5 492.825,-0.5 498.825,-0.5"/>
<text text-anchor="middle" x="610.688" y="-141.3" font-family="Times,serif" font-size="14.00">Work</text>
<polyline fill="none" stroke="black" points="486.825,-134.5 734.55,-134.5 "/>
<text text-anchor="start" x="494.825" y="-119.3" font-family="Times,serif" font-size="14.00">updated_at :timestamp without time zone</text>
<text text-anchor="start" x="494.825" y="-105.3" font-family="Times,serif" font-size="14.00">start_date :date</text>
<text text-anchor="start" x="494.825" y="-91.3" font-family="Times,serif" font-size="14.00">end_date :date</text>
<text text-anchor="start" x="494.825" y="-77.3" font-family="Times,serif" font-size="14.00">comment_user :text</text>
<text text-anchor="start" x="494.825" y="-63.3" font-family="Times,serif" font-size="14.00">comment_company :text</text>
<text text-anchor="start" x="494.825" y="-49.3" font-family="Times,serif" font-size="14.00">user_id :integer</text>
<text text-anchor="start" x="494.825" y="-35.3" font-family="Times,serif" font-size="14.00">company_id :integer</text>
<text text-anchor="start" x="494.825" y="-21.3" font-family="Times,serif" font-size="14.00">created_at :timestamp without time zone</text>
<text text-anchor="start" x="494.825" y="-7.3" font-family="Times,serif" font-size="14.00">id :integer</text>
</g>
<!-- Company&#45;&gt;Work -->
<g id="edge2" class="edge"><title>Company&#45;&gt;Work</title>
<path fill="none" stroke="#b02a17" d="M804.12,-597.896C824.612,-579.019 843.046,-556.931 854.688,-532 918.435,-395.484 935.701,-320.033 854.688,-193 829.587,-153.641 786.91,-127.715 744.2,-110.733"/>
<ellipse fill="none" stroke="#b02a17" cx="800.973" cy="-600.72" rx="4.00002" ry="4.00002"/>
<polygon fill="#b02a17" stroke="#b02a17" points="744.144,-110.712 736.413,-102.935 739.474,-108.925 734.805,-107.138 734.805,-107.138 734.805,-107.138 739.474,-108.925 733.196,-111.34 744.144,-110.712 744.144,-110.712"/>
</g>
<!-- User&#45;&gt;Work -->
<g id="edge4" class="edge"><title>User&#45;&gt;Work</title>
<path fill="none" stroke="#58eebf" d="M503.991,-194.342C513.593,-184.006 523.015,-173.865 532.04,-164.151"/>
<ellipse fill="none" stroke="#58eebf" cx="501.159" cy="-197.39" rx="4.00002" ry="4.00002"/>
<polygon fill="#58eebf" stroke="#58eebf" points="532.054,-164.136 542.158,-159.873 535.458,-160.473 538.861,-156.81 538.861,-156.81 538.861,-156.81 535.458,-160.473 535.564,-153.747 532.054,-164.136 532.054,-164.136"/>
</g>
</g>
</svg>
