<?xml version="1.0" encoding="UTF-8" standalone="no"?>
<!DOCTYPE svg PUBLIC "-//W3C//DTD SVG 1.1//EN"
 "http://www.w3.org/Graphics/SVG/1.1/DTD/svg11.dtd">
<!-- Generated by graphviz version 2.38.0 (20140413.2041)
 -->
<!-- Title: models_diagram Pages: 1 -->
<svg width="471pt" height="225pt"
 viewBox="0.00 0.00 471.48 225.00" xmlns="http://www.w3.org/2000/svg" xmlns:xlink="http://www.w3.org/1999/xlink">
<g id="graph0" class="graph" transform="scale(1 1) rotate(0) translate(4 221)">
<title>models_diagram</title>
<polygon fill="none" stroke="none" points="-4,4 -4,-221 467.481,-221 467.481,4 -4,4"/>
<!-- _diagram_info -->
<g id="node1" class="node"><title>_diagram_info</title>
<text text-anchor="start" x="8" y="-202.6" font-family="Times,serif" font-size="13.00">Models diagram</text>
<text text-anchor="start" x="8" y="-189.6" font-family="Times,serif" font-size="13.00">Date: Aug 17 2016 &#45; 22:01</text>
<text text-anchor="start" x="8" y="-176.6" font-family="Times,serif" font-size="13.00">Migration version: 20160818001638</text>
<text text-anchor="start" x="8" y="-163.6" font-family="Times,serif" font-size="13.00">Generated by RailRoady 1.5.1</text>
<text text-anchor="start" x="8" y="-150.6" font-family="Times,serif" font-size="13.00">http://railroady.prestonlee.com</text>
</g>
<!-- AdminUser -->
<g id="node2" class="node"><title>AdminUser</title>
<ellipse fill="none" stroke="black" cx="276.688" cy="-180.5" rx="51.2415" ry="18"/>
<text text-anchor="middle" x="276.688" y="-176.3" font-family="Times,serif" font-size="14.00">AdminUser</text>
</g>
<!-- Company -->
<g id="node3" class="node"><title>Company</title>
<ellipse fill="none" stroke="black" cx="390.688" cy="-180.5" rx="44.4923" ry="18"/>
<text text-anchor="middle" x="390.688" y="-176.3" font-family="Times,serif" font-size="14.00">Company</text>
</g>
<!-- User -->
<g id="node4" class="node"><title>User</title>
<ellipse fill="none" stroke="black" cx="286.688" cy="-90" rx="27" ry="18"/>
<text text-anchor="middle" x="286.688" y="-85.8" font-family="Times,serif" font-size="14.00">User</text>
</g>
<!-- Company&#45;&gt;User -->
<g id="edge3" class="edge"><title>Company&#45;&gt;User</title>
<path fill="none" stroke="#57577c" d="M364.472,-157.191C347.927,-143.112 326.72,-125.066 310.629,-111.373"/>
<polygon fill="#57577c" stroke="#57577c" points="364.479,-157.197 369.178,-167.105 368.287,-160.438 372.095,-163.678 372.095,-163.678 372.095,-163.678 368.287,-160.438 375.011,-160.251 364.479,-157.197 364.479,-157.197"/>
<polygon fill="#57577c" stroke="#57577c" points="310.349,-111.135 305.649,-101.227 306.541,-107.894 302.733,-104.654 302.733,-104.654 302.733,-104.654 306.541,-107.894 299.817,-108.081 310.349,-111.135 310.349,-111.135"/>
</g>
<!-- Usercompany -->
<g id="node5" class="node"><title>Usercompany</title>
<ellipse fill="none" stroke="black" cx="390.688" cy="-90" rx="59.4426" ry="18"/>
<text text-anchor="middle" x="390.688" y="-85.8" font-family="Times,serif" font-size="14.00">Usercompany</text>
</g>
<!-- Company&#45;&gt;Usercompany -->
<g id="edge1" class="edge"><title>Company&#45;&gt;Usercompany</title>
<path fill="none" stroke="#2dcf46" d="M390.688,-154.189C390.688,-142.971 390.688,-129.752 390.688,-118.311"/>
<ellipse fill="none" stroke="#2dcf46" cx="390.688" cy="-158.436" rx="4" ry="4"/>
<polygon fill="#2dcf46" stroke="#2dcf46" points="390.688,-118.011 395.188,-108.011 390.688,-113.011 390.688,-108.011 390.688,-108.011 390.688,-108.011 390.688,-113.011 386.188,-108.011 390.688,-118.011 390.688,-118.011"/>
</g>
<!-- Work -->
<g id="node6" class="node"><title>Work</title>
<ellipse fill="none" stroke="black" cx="381.688" cy="-18" rx="29.5766" ry="18"/>
<text text-anchor="middle" x="381.688" y="-13.8" font-family="Times,serif" font-size="14.00">Work</text>
</g>
<!-- Company&#45;&gt;Work -->
<g id="edge2" class="edge"><title>Company&#45;&gt;Work</title>
<path fill="none" stroke="#3c989d" d="M418.51,-159.207C443.944,-138.017 475.265,-103.535 458.688,-72 449.472,-54.4682 431.542,-41.6066 415.302,-32.947"/>
<ellipse fill="none" stroke="#3c989d" cx="415.316" cy="-161.785" rx="4.00002" ry="4.00002"/>
<polygon fill="#3c989d" stroke="#3c989d" points="414.968,-32.7814 408.017,-24.3007 410.491,-30.5559 406.014,-28.3304 406.014,-28.3304 406.014,-28.3304 410.491,-30.5559 404.011,-32.3601 414.968,-32.7814 414.968,-32.7814"/>
</g>
<!-- User&#45;&gt;Work -->
<g id="edge4" class="edge"><title>User&#45;&gt;Work</title>
<path fill="none" stroke="#0050cd" d="M310.787,-71.2424C324.333,-61.2614 341.263,-48.7866 355.182,-38.5305"/>
<ellipse fill="none" stroke="#0050cd" cx="307.332" cy="-73.7881" rx="4.00002" ry="4.00002"/>
<polygon fill="#0050cd" stroke="#0050cd" points="355.352,-38.4054 366.072,-36.0962 359.377,-35.4394 363.402,-32.4734 363.402,-32.4734 363.402,-32.4734 359.377,-35.4394 360.733,-28.8506 355.352,-38.4054 355.352,-38.4054"/>
</g>
</g>
</svg>
