<?xml version="1.0" encoding="UTF-8" standalone="no"?>
<!DOCTYPE svg PUBLIC "-//W3C//DTD SVG 1.1//EN"
 "http://www.w3.org/Graphics/SVG/1.1/DTD/svg11.dtd">
<!-- Generated by graphviz version 2.38.0 (20140413.2041)
 -->
<!-- Title: models_diagram Pages: 1 -->
<svg width="525pt" height="158pt"
 viewBox="0.00 0.00 525.30 158.00" xmlns="http://www.w3.org/2000/svg" xmlns:xlink="http://www.w3.org/1999/xlink">
<g id="graph0" class="graph" transform="scale(1 1) rotate(0) translate(4 154)">
<title>models_diagram</title>
<polygon fill="none" stroke="none" points="-4,4 -4,-154 521.298,-154 521.298,4 -4,4"/>
<!-- _diagram_info -->
<g id="node1" class="node"><title>_diagram_info</title>
<text text-anchor="start" x="8" y="-135.6" font-family="Times,serif" font-size="13.00">Models diagram</text>
<text text-anchor="start" x="8" y="-121.6" font-family="Times,serif" font-size="13.00">Date: Aug 11 2016 &#45; 21:55</text>
<text text-anchor="start" x="8" y="-107.6" font-family="Times,serif" font-size="13.00">Migration version: 20160811013925</text>
<text text-anchor="start" x="8" y="-93.6" font-family="Times,serif" font-size="13.00">Generated by RailRoady 1.5.1</text>
<text text-anchor="start" x="8" y="-79.6" font-family="Times,serif" font-size="13.00">http://railroady.prestonlee.com</text>
</g>
<!-- AdminUser -->
<g id="node2" class="node"><title>AdminUser</title>
<ellipse fill="none" stroke="black" cx="284" cy="-111" rx="51.9908" ry="18"/>
<text text-anchor="middle" x="284" y="-107.3" font-family="Times,serif" font-size="14.00">AdminUser</text>
</g>
<!-- Company -->
<g id="node3" class="node"><title>Company</title>
<ellipse fill="none" stroke="black" cx="399" cy="-111" rx="45.4919" ry="18"/>
<text text-anchor="middle" x="399" y="-107.3" font-family="Times,serif" font-size="14.00">Company</text>
</g>
<!-- Usercompany -->
<g id="node5" class="node"><title>Usercompany</title>
<ellipse fill="none" stroke="black" cx="399" cy="-18" rx="59.5901" ry="18"/>
<text text-anchor="middle" x="399" y="-14.3" font-family="Times,serif" font-size="14.00">Usercompany</text>
</g>
<!-- Company&#45;&gt;Usercompany -->
<g id="edge1" class="edge"><title>Company&#45;&gt;Usercompany</title>
<path fill="none" stroke="#217c6d" d="M399,-84.7285C399,-72.7246 399,-58.3622 399,-46.1291"/>
<ellipse fill="none" stroke="#217c6d" cx="399" cy="-88.8836" rx="4" ry="4"/>
<polygon fill="#217c6d" stroke="#217c6d" points="399,-46.0397 403.5,-36.0396 399,-41.0397 399,-36.0397 399,-36.0397 399,-36.0397 399,-41.0397 394.5,-36.0397 399,-46.0397 399,-46.0397"/>
</g>
<!-- User -->
<g id="node4" class="node"><title>User</title>
<ellipse fill="none" stroke="black" cx="490" cy="-111" rx="27.0966" ry="18"/>
<text text-anchor="middle" x="490" y="-107.3" font-family="Times,serif" font-size="14.00">User</text>
</g>
</g>
</svg>
