<?xml version="1.0" encoding="UTF-8" standalone="no"?>
<!DOCTYPE svg PUBLIC "-//W3C//DTD SVG 1.1//EN"
 "http://www.w3.org/Graphics/SVG/1.1/DTD/svg11.dtd">
<!-- Generated by graphviz version 2.38.0 (20140413.2041)
 -->
<!-- Title: models_diagram Pages: 1 -->
<svg width="1148pt" height="753pt"
 viewBox="0.00 0.00 1147.50 753.00" xmlns="http://www.w3.org/2000/svg" xmlns:xlink="http://www.w3.org/1999/xlink">
<g id="graph0" class="graph" transform="scale(1 1) rotate(0) translate(4 749)">
<title>models_diagram</title>
<polygon fill="none" stroke="none" points="-4,4 -4,-749 1143.5,-749 1143.5,4 -4,4"/>
<!-- _diagram_info -->
<g id="node1" class="node"><title>_diagram_info</title>
<text text-anchor="start" x="8" y="-596.1" font-family="Times,serif" font-size="13.00">Models diagram</text>
<text text-anchor="start" x="8" y="-582.1" font-family="Times,serif" font-size="13.00">Date: Aug 11 2016 &#45; 21:55</text>
<text text-anchor="start" x="8" y="-568.1" font-family="Times,serif" font-size="13.00">Migration version: 20160811013925</text>
<text text-anchor="start" x="8" y="-554.1" font-family="Times,serif" font-size="13.00">Generated by RailRoady 1.5.1</text>
<text text-anchor="start" x="8" y="-540.1" font-family="Times,serif" font-size="13.00">http://railroady.prestonlee.com</text>
</g>
<!-- AdminUser -->
<g id="node2" class="node"><title>AdminUser</title>
<path fill="none" stroke="black" d="M244.5,-458.5C244.5,-458.5 533.5,-458.5 533.5,-458.5 539.5,-458.5 545.5,-464.5 545.5,-470.5 545.5,-470.5 545.5,-672.5 545.5,-672.5 545.5,-678.5 539.5,-684.5 533.5,-684.5 533.5,-684.5 244.5,-684.5 244.5,-684.5 238.5,-684.5 232.5,-678.5 232.5,-672.5 232.5,-672.5 232.5,-470.5 232.5,-470.5 232.5,-464.5 238.5,-458.5 244.5,-458.5"/>
<text text-anchor="middle" x="389" y="-669.3" font-family="Times,serif" font-size="14.00">AdminUser</text>
<polyline fill="none" stroke="black" points="232.5,-661.5 545.5,-661.5 "/>
<text text-anchor="start" x="240.5" y="-646.3" font-family="Times,serif" font-size="14.00">id :integer</text>
<text text-anchor="start" x="240.5" y="-631.3" font-family="Times,serif" font-size="14.00">email :character varying</text>
<text text-anchor="start" x="240.5" y="-616.3" font-family="Times,serif" font-size="14.00">encrypted_password :character varying</text>
<text text-anchor="start" x="240.5" y="-601.3" font-family="Times,serif" font-size="14.00">reset_password_token :character varying</text>
<text text-anchor="start" x="240.5" y="-586.3" font-family="Times,serif" font-size="14.00">reset_password_sent_at :timestamp without time zone</text>
<text text-anchor="start" x="240.5" y="-571.3" font-family="Times,serif" font-size="14.00">remember_created_at :timestamp without time zone</text>
<text text-anchor="start" x="240.5" y="-556.3" font-family="Times,serif" font-size="14.00">sign_in_count :integer</text>
<text text-anchor="start" x="240.5" y="-541.3" font-family="Times,serif" font-size="14.00">current_sign_in_at :timestamp without time zone</text>
<text text-anchor="start" x="240.5" y="-526.3" font-family="Times,serif" font-size="14.00">last_sign_in_at :timestamp without time zone</text>
<text text-anchor="start" x="240.5" y="-511.3" font-family="Times,serif" font-size="14.00">current_sign_in_ip :inet</text>
<text text-anchor="start" x="240.5" y="-496.3" font-family="Times,serif" font-size="14.00">last_sign_in_ip :inet</text>
<text text-anchor="start" x="240.5" y="-481.3" font-family="Times,serif" font-size="14.00">created_at :timestamp without time zone</text>
<text text-anchor="start" x="240.5" y="-466.3" font-family="Times,serif" font-size="14.00">updated_at :timestamp without time zone</text>
</g>
<!-- Company -->
<g id="node3" class="node"><title>Company</title>
<path fill="none" stroke="black" d="M576,-496C576,-496 796,-496 796,-496 802,-496 808,-502 808,-508 808,-508 808,-635 808,-635 808,-641 802,-647 796,-647 796,-647 576,-647 576,-647 570,-647 564,-641 564,-635 564,-635 564,-508 564,-508 564,-502 570,-496 576,-496"/>
<text text-anchor="middle" x="686" y="-631.8" font-family="Times,serif" font-size="14.00">Company</text>
<polyline fill="none" stroke="black" points="564,-624 808,-624 "/>
<text text-anchor="start" x="572" y="-608.8" font-family="Times,serif" font-size="14.00">id :integer</text>
<text text-anchor="start" x="572" y="-593.8" font-family="Times,serif" font-size="14.00">name :character varying</text>
<text text-anchor="start" x="572" y="-578.8" font-family="Times,serif" font-size="14.00">rut :character varying</text>
<text text-anchor="start" x="572" y="-563.8" font-family="Times,serif" font-size="14.00">phone :character varying</text>
<text text-anchor="start" x="572" y="-548.8" font-family="Times,serif" font-size="14.00">address :character varying</text>
<text text-anchor="start" x="572" y="-533.8" font-family="Times,serif" font-size="14.00">activity :character varying</text>
<text text-anchor="start" x="572" y="-518.8" font-family="Times,serif" font-size="14.00">created_at :timestamp without time zone</text>
<text text-anchor="start" x="572" y="-503.8" font-family="Times,serif" font-size="14.00">updated_at :timestamp without time zone</text>
</g>
<!-- Usercompany -->
<g id="node5" class="node"><title>Usercompany</title>
<path fill="none" stroke="black" d="M541.5,-0.5C541.5,-0.5 830.5,-0.5 830.5,-0.5 836.5,-0.5 842.5,-6.5 842.5,-12.5 842.5,-12.5 842.5,-349.5 842.5,-349.5 842.5,-355.5 836.5,-361.5 830.5,-361.5 830.5,-361.5 541.5,-361.5 541.5,-361.5 535.5,-361.5 529.5,-355.5 529.5,-349.5 529.5,-349.5 529.5,-12.5 529.5,-12.5 529.5,-6.5 535.5,-0.5 541.5,-0.5"/>
<text text-anchor="middle" x="686" y="-346.3" font-family="Times,serif" font-size="14.00">Usercompany</text>
<polyline fill="none" stroke="black" points="529.5,-338.5 842.5,-338.5 "/>
<text text-anchor="start" x="537.5" y="-323.3" font-family="Times,serif" font-size="14.00">id :integer</text>
<text text-anchor="start" x="537.5" y="-308.3" font-family="Times,serif" font-size="14.00">email :character varying</text>
<text text-anchor="start" x="537.5" y="-293.3" font-family="Times,serif" font-size="14.00">encrypted_password :character varying</text>
<text text-anchor="start" x="537.5" y="-278.3" font-family="Times,serif" font-size="14.00">reset_password_token :character varying</text>
<text text-anchor="start" x="537.5" y="-263.3" font-family="Times,serif" font-size="14.00">reset_password_sent_at :timestamp without time zone</text>
<text text-anchor="start" x="537.5" y="-248.3" font-family="Times,serif" font-size="14.00">remember_created_at :timestamp without time zone</text>
<text text-anchor="start" x="537.5" y="-233.3" font-family="Times,serif" font-size="14.00">sign_in_count :integer</text>
<text text-anchor="start" x="537.5" y="-218.3" font-family="Times,serif" font-size="14.00">current_sign_in_at :timestamp without time zone</text>
<text text-anchor="start" x="537.5" y="-203.3" font-family="Times,serif" font-size="14.00">last_sign_in_at :timestamp without time zone</text>
<text text-anchor="start" x="537.5" y="-188.3" font-family="Times,serif" font-size="14.00">current_sign_in_ip :inet</text>
<text text-anchor="start" x="537.5" y="-173.3" font-family="Times,serif" font-size="14.00">last_sign_in_ip :inet</text>
<text text-anchor="start" x="537.5" y="-158.3" font-family="Times,serif" font-size="14.00">firstname :character varying</text>
<text text-anchor="start" x="537.5" y="-143.3" font-family="Times,serif" font-size="14.00">lastname :character varying</text>
<text text-anchor="start" x="537.5" y="-128.3" font-family="Times,serif" font-size="14.00">phone :character varying</text>
<text text-anchor="start" x="537.5" y="-113.3" font-family="Times,serif" font-size="14.00">dni :character varying</text>
<text text-anchor="start" x="537.5" y="-98.3" font-family="Times,serif" font-size="14.00">birthday :character varying</text>
<text text-anchor="start" x="537.5" y="-83.3" font-family="Times,serif" font-size="14.00">company_id :integer</text>
<text text-anchor="start" x="537.5" y="-68.3" font-family="Times,serif" font-size="14.00">created_at :timestamp without time zone</text>
<text text-anchor="start" x="537.5" y="-53.3" font-family="Times,serif" font-size="14.00">updated_at :timestamp without time zone</text>
<text text-anchor="start" x="537.5" y="-38.3" font-family="Times,serif" font-size="14.00">confirmation_token :character varying</text>
<text text-anchor="start" x="537.5" y="-23.3" font-family="Times,serif" font-size="14.00">confirmed_at :timestamp without time zone</text>
<text text-anchor="start" x="537.5" y="-8.3" font-family="Times,serif" font-size="14.00">confirmation_sent_at :timestamp without time zone</text>
</g>
<!-- Company&#45;&gt;Usercompany -->
<g id="edge1" class="edge"><title>Company&#45;&gt;Usercompany</title>
<path fill="none" stroke="#104450" d="M686,-487.378C686,-453.351 686,-412.468 686,-371.843"/>
<ellipse fill="none" stroke="#104450" cx="686" cy="-491.593" rx="4" ry="4"/>
<polygon fill="#104450" stroke="#104450" points="686,-371.803 690.5,-361.803 686,-366.803 686,-361.803 686,-361.803 686,-361.803 686,-366.803 681.5,-361.803 686,-371.803 686,-371.803"/>
</g>
<!-- User -->
<g id="node4" class="node"><title>User</title>
<path fill="none" stroke="black" d="M838.5,-398.5C838.5,-398.5 1127.5,-398.5 1127.5,-398.5 1133.5,-398.5 1139.5,-404.5 1139.5,-410.5 1139.5,-410.5 1139.5,-732.5 1139.5,-732.5 1139.5,-738.5 1133.5,-744.5 1127.5,-744.5 1127.5,-744.5 838.5,-744.5 838.5,-744.5 832.5,-744.5 826.5,-738.5 826.5,-732.5 826.5,-732.5 826.5,-410.5 826.5,-410.5 826.5,-404.5 832.5,-398.5 838.5,-398.5"/>
<text text-anchor="middle" x="983" y="-729.3" font-family="Times,serif" font-size="14.00">User</text>
<polyline fill="none" stroke="black" points="826.5,-721.5 1139.5,-721.5 "/>
<text text-anchor="start" x="834.5" y="-706.3" font-family="Times,serif" font-size="14.00">id :integer</text>
<text text-anchor="start" x="834.5" y="-691.3" font-family="Times,serif" font-size="14.00">email :character varying</text>
<text text-anchor="start" x="834.5" y="-676.3" font-family="Times,serif" font-size="14.00">encrypted_password :character varying</text>
<text text-anchor="start" x="834.5" y="-661.3" font-family="Times,serif" font-size="14.00">reset_password_token :character varying</text>
<text text-anchor="start" x="834.5" y="-646.3" font-family="Times,serif" font-size="14.00">reset_password_sent_at :timestamp without time zone</text>
<text text-anchor="start" x="834.5" y="-631.3" font-family="Times,serif" font-size="14.00">remember_created_at :timestamp without time zone</text>
<text text-anchor="start" x="834.5" y="-616.3" font-family="Times,serif" font-size="14.00">sign_in_count :integer</text>
<text text-anchor="start" x="834.5" y="-601.3" font-family="Times,serif" font-size="14.00">current_sign_in_at :timestamp without time zone</text>
<text text-anchor="start" x="834.5" y="-586.3" font-family="Times,serif" font-size="14.00">last_sign_in_at :timestamp without time zone</text>
<text text-anchor="start" x="834.5" y="-571.3" font-family="Times,serif" font-size="14.00">current_sign_in_ip :inet</text>
<text text-anchor="start" x="834.5" y="-556.3" font-family="Times,serif" font-size="14.00">last_sign_in_ip :inet</text>
<text text-anchor="start" x="834.5" y="-541.3" font-family="Times,serif" font-size="14.00">firstname :character varying</text>
<text text-anchor="start" x="834.5" y="-526.3" font-family="Times,serif" font-size="14.00">lastname :character varying</text>
<text text-anchor="start" x="834.5" y="-511.3" font-family="Times,serif" font-size="14.00">phone :character varying</text>
<text text-anchor="start" x="834.5" y="-496.3" font-family="Times,serif" font-size="14.00">dni :character varying</text>
<text text-anchor="start" x="834.5" y="-481.3" font-family="Times,serif" font-size="14.00">birthday :date</text>
<text text-anchor="start" x="834.5" y="-466.3" font-family="Times,serif" font-size="14.00">created_at :timestamp without time zone</text>
<text text-anchor="start" x="834.5" y="-451.3" font-family="Times,serif" font-size="14.00">updated_at :timestamp without time zone</text>
<text text-anchor="start" x="834.5" y="-436.3" font-family="Times,serif" font-size="14.00">confirmation_token :character varying</text>
<text text-anchor="start" x="834.5" y="-421.3" font-family="Times,serif" font-size="14.00">confirmed_at :timestamp without time zone</text>
<text text-anchor="start" x="834.5" y="-406.3" font-family="Times,serif" font-size="14.00">confirmation_sent_at :timestamp without time zone</text>
</g>
</g>
</svg>
